<?xml version="1.0" standalone="no"?>
<!DOCTYPE svg PUBLIC "-//W3C//DTD SVG 20010904//EN"
 "http://www.w3.org/TR/2001/REC-SVG-20010904/DTD/svg10.dtd">
<svg version="1.0" xmlns="http://www.w3.org/2000/svg"
 width="48.000000pt" height="48.000000pt" viewBox="0 0 48.000000 48.000000"
 preserveAspectRatio="xMidYMid meet">

<g transform="translate(0.000000,48.000000) scale(0.100000,-0.100000)"
fill="#000000" stroke="none">
<path d="M199 411 c-16 -16 -29 -36 -29 -45 0 -11 -7 -9 -25 9 -30 31 -40 31
-70 0 -31 -30 -31 -40 0 -70 13 -14 20 -25 15 -25 -5 0 -16 -7 -24 -16 -12
-11 -16 -36 -16 -94 0 -107 4 -110 135 -110 106 0 135 10 135 46 0 16 26 19
35 4 3 -5 15 -15 26 -20 18 -10 19 -7 19 80 l0 91 -29 -20 c-38 -27 -47 -26
-55 3 -3 14 -15 27 -25 31 -17 5 -16 8 10 35 16 15 29 38 29 50 0 28 -52 80
-80 80 -12 0 -35 -13 -51 -29z m67 -42 c10 -17 -13 -36 -27 -22 -12 12 -4 33
11 33 5 0 12 -5 16 -11z m-140 -20 c10 -17 -13 -36 -27 -22 -12 12 -4 33 11
33 5 0 12 -5 16 -11z m87 -54 c20 -14 19 -15 -35 -15 l-56 0 27 29 c20 22 28
26 34 15 4 -7 17 -20 30 -29z m67 -75 c0 -13 -7 -20 -20 -20 -13 0 -20 7 -20
20 0 13 7 20 20 20 13 0 20 -7 20 -20z"/>
</g>
</svg>
