<?xml version="1.0" standalone="no"?>
<!DOCTYPE svg PUBLIC "-//W3C//DTD SVG 20010904//EN"
 "http://www.w3.org/TR/2001/REC-SVG-20010904/DTD/svg10.dtd">
<svg version="1.0" xmlns="http://www.w3.org/2000/svg"
 width="16.000000pt" height="16.000000pt" viewBox="0 0 16.000000 16.000000"
 preserveAspectRatio="xMidYMid meet">

<g transform="translate(0.000000,16.000000) scale(0.100000,-0.100000)"
fill="#000000" stroke="none">
<path d="M65 130 c-4 -7 -3 -16 3 -22 14 -14 45 -2 40 15 -6 16 -34 21 -43 7z"/>
<path d="M20 115 c0 -8 7 -15 15 -15 8 0 15 7 15 15 0 8 -7 15 -15 15 -8 0
-15 -7 -15 -15z"/>
<path d="M20 55 c0 -34 1 -35 40 -35 23 0 40 5 40 11 0 6 7 9 15 5 11 -4 15 2
14 22 -1 17 -3 20 -6 10 -5 -19 -23 -25 -23 -7 0 5 -4 7 -10 4 -5 -3 -10 -2
-10 4 0 5 6 12 13 14 6 3 -7 6 -30 6 -43 1 -43 1 -43 -34z"/>
</g>
</svg>
